G04 DipTrace 2.4.0.2*
%INBottom.gbr*%
%MOIN*%
%ADD14C,0.013*%
%ADD15C,0.025*%
%ADD19C,0.06*%
%ADD21R,0.0984X0.0984*%
%ADD22C,0.0984*%
%ADD23C,0.1201*%
%ADD24C,0.0709*%
%ADD25C,0.04*%
%ADD54C,0.0062*%
%FSLAX44Y44*%
G04*
G70*
G90*
G75*
G01*
%LNBottom*%
%LPD*%
X15940Y19440D2*
D14*
X15440D1*
X11940Y17940D2*
X12440D1*
Y17440D1*
X10440Y15440D1*
X16940Y14440D2*
Y14940D1*
X15940Y15940D1*
X10940D1*
X10440Y15440D1*
X12940Y7440D2*
Y10440D1*
X16940Y14440D1*
X11940Y12940D2*
Y13940D1*
X10440Y15440D1*
X12440Y5440D2*
Y12440D1*
X14440Y14440D1*
X18440Y9940D2*
Y14346D1*
X19940Y15846D1*
D25*
X15940Y19440D3*
X11940Y17940D3*
X16940Y14440D3*
X12940Y7440D3*
X16940Y14440D3*
X11940Y12940D3*
X12440Y5440D3*
X14440Y14440D3*
X18440Y9940D3*
X9268Y20566D2*
D15*
X20790D1*
X9090Y20318D2*
X20790D1*
X9090Y20069D2*
X20790D1*
X9090Y19820D2*
X20790D1*
X9090Y19572D2*
X20790D1*
X9090Y19323D2*
X20790D1*
X9090Y19074D2*
X20790D1*
X9090Y18825D2*
X20790D1*
X9090Y18577D2*
X20790D1*
X9090Y18328D2*
X20790D1*
X9090Y18079D2*
X20790D1*
X9090Y17831D2*
X20790D1*
X9090Y17582D2*
X20790D1*
X9090Y17333D2*
X20790D1*
X9090Y17085D2*
X20790D1*
X9090Y16836D2*
X20790D1*
X9090Y16587D2*
X19765D1*
X20115D2*
X20790D1*
X9090Y16339D2*
X19339D1*
X20541D2*
X20790D1*
X9090Y16090D2*
X19198D1*
X20682D2*
X20790D1*
X9090Y15841D2*
X10019D1*
X10861D2*
X19159D1*
X9090Y15593D2*
X9870D1*
X11010D2*
X19194D1*
X20678D2*
X20790D1*
X9090Y15344D2*
X9858D1*
X11022D2*
X18948D1*
X20533D2*
X20790D1*
X9090Y15095D2*
X9968D1*
X10912D2*
X18698D1*
X19682D2*
X19815D1*
X20065D2*
X20790D1*
X9090Y14846D2*
X10022D1*
X10858D2*
X14190D1*
X14690D2*
X18448D1*
X19432D2*
X20790D1*
X9090Y14598D2*
X9874D1*
X11006D2*
X13979D1*
X14901D2*
X18202D1*
X19186D2*
X19683D1*
X20197D2*
X20790D1*
X9090Y14349D2*
X9858D1*
X11022D2*
X13858D1*
X14920D2*
X18085D1*
X18936D2*
X19323D1*
X20557D2*
X20790D1*
X9090Y14100D2*
X9964D1*
X10916D2*
X13608D1*
X14783D2*
X18085D1*
X18795D2*
X19190D1*
X20690D2*
X20790D1*
X9090Y13852D2*
X10030D1*
X10850D2*
X13358D1*
X14342D2*
X18085D1*
X18795D2*
X19159D1*
X9090Y13603D2*
X9874D1*
X11006D2*
X13112D1*
X14096D2*
X18085D1*
X18795D2*
X19210D1*
X20670D2*
X20790D1*
X9090Y13354D2*
X9858D1*
X11022D2*
X12862D1*
X13846D2*
X18085D1*
X18795D2*
X19366D1*
X20514D2*
X20790D1*
X9090Y13106D2*
X9960D1*
X10920D2*
X12612D1*
X13596D2*
X18085D1*
X18795D2*
X20790D1*
X9090Y12857D2*
X12366D1*
X13350D2*
X18085D1*
X18795D2*
X20790D1*
X9090Y12608D2*
X12132D1*
X13100D2*
X18085D1*
X18795D2*
X19628D1*
X20252D2*
X20790D1*
X9090Y12360D2*
X10038D1*
X10842D2*
X12085D1*
X12850D2*
X18085D1*
X18795D2*
X19308D1*
X20572D2*
X20790D1*
X9090Y12111D2*
X9878D1*
X11002D2*
X12085D1*
X12795D2*
X18085D1*
X18795D2*
X19186D1*
X20694D2*
X20790D1*
X9090Y11862D2*
X9854D1*
X11026D2*
X12085D1*
X12795D2*
X18085D1*
X18795D2*
X19159D1*
X9090Y11614D2*
X9952D1*
X10928D2*
X12085D1*
X12795D2*
X18085D1*
X18795D2*
X19218D1*
X20662D2*
X20790D1*
X9090Y11365D2*
X10042D1*
X10838D2*
X12085D1*
X12795D2*
X18085D1*
X18795D2*
X19390D1*
X20490D2*
X20790D1*
X9090Y11116D2*
X9878D1*
X11002D2*
X12085D1*
X12795D2*
X18085D1*
X18795D2*
X20790D1*
X9090Y10867D2*
X9854D1*
X11026D2*
X12085D1*
X12795D2*
X18085D1*
X18795D2*
X20790D1*
X9090Y10619D2*
X9952D1*
X10928D2*
X12085D1*
X12795D2*
X18085D1*
X18795D2*
X19159D1*
X9090Y10370D2*
X10050D1*
X10830D2*
X12085D1*
X12795D2*
X18085D1*
X18795D2*
X19159D1*
X9090Y10121D2*
X9882D1*
X10998D2*
X12085D1*
X12795D2*
X17987D1*
X18893D2*
X19159D1*
X9090Y9873D2*
X9854D1*
X11026D2*
X12085D1*
X12795D2*
X17956D1*
X18924D2*
X19159D1*
X9090Y9624D2*
X9948D1*
X10932D2*
X12085D1*
X12795D2*
X18073D1*
X18807D2*
X19159D1*
X9090Y9375D2*
X10397D1*
X10481D2*
X12085D1*
X12795D2*
X19159D1*
X9090Y9127D2*
X12085D1*
X12795D2*
X20790D1*
X9090Y8878D2*
X12085D1*
X12795D2*
X20790D1*
X9090Y8629D2*
X12085D1*
X12795D2*
X20790D1*
X9090Y8381D2*
X12085D1*
X12795D2*
X20790D1*
X9090Y8132D2*
X12085D1*
X12795D2*
X20790D1*
X9090Y7883D2*
X12085D1*
X12795D2*
X20790D1*
X9090Y7635D2*
X12085D1*
X12795D2*
X20790D1*
X9090Y7386D2*
X12085D1*
X12795D2*
X20790D1*
X9090Y7137D2*
X12085D1*
X12795D2*
X20790D1*
X9090Y6888D2*
X12085D1*
X12795D2*
X18808D1*
X20072D2*
X20790D1*
X9090Y6640D2*
X12085D1*
X12795D2*
X18534D1*
X20346D2*
X20790D1*
X9090Y6391D2*
X12085D1*
X12795D2*
X18382D1*
X20498D2*
X20790D1*
X9090Y6142D2*
X12085D1*
X12795D2*
X18308D1*
X20572D2*
X20790D1*
X9090Y5894D2*
X12085D1*
X12795D2*
X18288D1*
X20592D2*
X20790D1*
X9090Y5645D2*
X11999D1*
X12881D2*
X18327D1*
X20553D2*
X20790D1*
X9090Y5396D2*
X11952D1*
X12928D2*
X18429D1*
X20451D2*
X20790D1*
X9090Y5148D2*
X12054D1*
X12826D2*
X18616D1*
X20264D2*
X20790D1*
X9182Y4899D2*
X18987D1*
X19893D2*
X20790D1*
X9432Y4650D2*
X20790D1*
X20559Y5815D2*
X20539Y5692D1*
X20504Y5572D1*
X20457Y5456D1*
X20397Y5347D1*
X20326Y5244D1*
X20243Y5150D1*
X20151Y5066D1*
X20050Y4993D1*
X19941Y4931D1*
X19826Y4882D1*
X19707Y4846D1*
X19584Y4823D1*
X19459Y4814D1*
X19334Y4819D1*
X19211Y4837D1*
X19090Y4869D1*
X18974Y4915D1*
X18863Y4973D1*
X18759Y5043D1*
X18664Y5123D1*
X18579Y5214D1*
X18503Y5314D1*
X18440Y5422D1*
X18389Y5536D1*
X18350Y5655D1*
X18326Y5777D1*
X18314Y5902D1*
X18317Y6026D1*
X18334Y6150D1*
X18364Y6272D1*
X18407Y6389D1*
X18463Y6500D1*
X18531Y6605D1*
X18610Y6702D1*
X18700Y6789D1*
X18798Y6866D1*
X18905Y6931D1*
X19018Y6984D1*
X19136Y7025D1*
X19258Y7052D1*
X19382Y7065D1*
X19507Y7064D1*
X19631Y7050D1*
X19753Y7022D1*
X19871Y6981D1*
X19984Y6926D1*
X20090Y6860D1*
X20187Y6783D1*
X20276Y6695D1*
X20355Y6597D1*
X20422Y6492D1*
X20477Y6380D1*
X20519Y6262D1*
X20548Y6141D1*
X20566Y5940D1*
X20559Y5815D1*
X10991Y11816D2*
X10951Y11698D1*
X10885Y11592D1*
X10798Y11503D1*
X10703Y11441D1*
X10758Y11407D1*
X10853Y11326D1*
X10927Y11226D1*
X10978Y11112D1*
X11005Y10940D1*
X10991Y10816D1*
X10951Y10698D1*
X10885Y10592D1*
X10798Y10503D1*
X10703Y10441D1*
X10758Y10407D1*
X10853Y10326D1*
X10927Y10226D1*
X10978Y10112D1*
X11005Y9940D1*
X10991Y9816D1*
X10951Y9698D1*
X10885Y9592D1*
X10798Y9503D1*
X10693Y9435D1*
X10576Y9392D1*
X10452Y9375D1*
X10328Y9386D1*
X10209Y9424D1*
X10102Y9487D1*
X10011Y9573D1*
X9941Y9676D1*
X9895Y9792D1*
X9876Y9915D1*
X9884Y10039D1*
X9919Y10159D1*
X9980Y10268D1*
X10063Y10361D1*
X10176Y10438D1*
X10102Y10487D1*
X10011Y10573D1*
X9941Y10676D1*
X9895Y10792D1*
X9876Y10915D1*
X9884Y11039D1*
X9919Y11159D1*
X9980Y11268D1*
X10063Y11361D1*
X10176Y11438D1*
X10102Y11487D1*
X10011Y11573D1*
X9941Y11676D1*
X9895Y11792D1*
X9876Y11915D1*
X9884Y12039D1*
X9919Y12159D1*
X9980Y12268D1*
X10063Y12361D1*
X10165Y12433D1*
X10280Y12482D1*
X10403Y12504D1*
X10527Y12498D1*
X10648Y12466D1*
X10758Y12407D1*
X10853Y12326D1*
X10927Y12226D1*
X10978Y12112D1*
X11005Y11940D1*
X10991Y11816D1*
Y13316D2*
X10951Y13198D1*
X10885Y13092D1*
X10798Y13003D1*
X10693Y12935D1*
X10576Y12892D1*
X10452Y12875D1*
X10328Y12886D1*
X10209Y12924D1*
X10102Y12987D1*
X10011Y13073D1*
X9941Y13176D1*
X9895Y13292D1*
X9876Y13415D1*
X9884Y13539D1*
X9919Y13659D1*
X9980Y13768D1*
X10063Y13861D1*
X10176Y13938D1*
X10102Y13987D1*
X10011Y14073D1*
X9941Y14176D1*
X9895Y14292D1*
X9876Y14415D1*
X9884Y14539D1*
X9919Y14659D1*
X9980Y14768D1*
X10063Y14861D1*
X10176Y14938D1*
X10063Y15019D1*
X9980Y15112D1*
X9919Y15221D1*
X9884Y15341D1*
X9876Y15465D1*
X9895Y15588D1*
X9941Y15704D1*
X10011Y15807D1*
X10102Y15893D1*
X10209Y15956D1*
X10328Y15994D1*
X10452Y16005D1*
X10576Y15988D1*
X10693Y15945D1*
X10798Y15877D1*
X10885Y15788D1*
X10951Y15682D1*
X10991Y15564D1*
X11005Y15440D1*
X10991Y15316D1*
X10951Y15198D1*
X10885Y15092D1*
X10798Y15003D1*
X10702Y14940D1*
X10758Y14907D1*
X10853Y14826D1*
X10927Y14726D1*
X10978Y14612D1*
X11005Y14440D1*
X10991Y14316D1*
X10951Y14198D1*
X10885Y14092D1*
X10798Y14003D1*
X10703Y13941D1*
X10758Y13907D1*
X10853Y13826D1*
X10927Y13726D1*
X10978Y13612D1*
X11005Y13440D1*
X10991Y13316D1*
X19308Y10697D2*
X20697D1*
Y9183D1*
X19183D1*
Y10697D1*
X19308D1*
X20697Y11884D2*
X20677Y11735D1*
X20628Y11593D1*
X20553Y11464D1*
X20453Y11352D1*
X20334Y11262D1*
X20199Y11197D1*
X20054Y11160D1*
X19904Y11152D1*
X19756Y11174D1*
X19615Y11225D1*
X19487Y11302D1*
X19376Y11403D1*
X19288Y11524D1*
X19225Y11660D1*
X19190Y11805D1*
X19184Y11955D1*
X19208Y12103D1*
X19261Y12243D1*
X19340Y12370D1*
X19442Y12479D1*
X19565Y12566D1*
X19701Y12627D1*
X19847Y12660D1*
X19997Y12663D1*
X20145Y12637D1*
X20284Y12583D1*
X20410Y12502D1*
X20518Y12398D1*
X20603Y12275D1*
X20662Y12137D1*
X20693Y11991D1*
X20697Y11884D1*
Y13852D2*
X20677Y13704D1*
X20628Y13562D1*
X20553Y13433D1*
X20453Y13321D1*
X20334Y13230D1*
X20199Y13166D1*
X20054Y13128D1*
X19904Y13121D1*
X19756Y13143D1*
X19615Y13193D1*
X19487Y13270D1*
X19376Y13371D1*
X19288Y13492D1*
X19225Y13628D1*
X19190Y13774D1*
X19184Y13923D1*
X19208Y14071D1*
X19261Y14211D1*
X19340Y14339D1*
X19442Y14448D1*
X19565Y14534D1*
X19701Y14596D1*
X19847Y14628D1*
X19997Y14632D1*
X20145Y14606D1*
X20284Y14551D1*
X20410Y14471D1*
X20518Y14366D1*
X20603Y14243D1*
X20662Y14106D1*
X20693Y13959D1*
X20697Y13852D1*
X20687Y15721D2*
X20656Y15600D1*
X20606Y15486D1*
X20538Y15381D1*
X20453Y15289D1*
X20355Y15212D1*
X20245Y15153D1*
X20127Y15112D1*
X20004Y15091D1*
X19879D1*
X19756Y15111D1*
X19693Y15132D1*
X18767Y14206D1*
X18770Y12346D1*
Y10271D1*
X18814Y10217D1*
X18874Y10108D1*
X18903Y9987D1*
X18905Y9940D1*
X18888Y9817D1*
X18839Y9702D1*
X18762Y9604D1*
X18661Y9531D1*
X18545Y9487D1*
X18420Y9475D1*
X18298Y9497D1*
X18185Y9551D1*
X18091Y9633D1*
X18022Y9736D1*
X17983Y9855D1*
X17977Y9979D1*
X18004Y10101D1*
X18062Y10211D1*
X18107Y10259D1*
X18110Y11565D1*
Y14346D1*
X18133Y14468D1*
X18207Y14579D1*
X19226Y15598D1*
X19194Y15718D1*
X19183Y15842D1*
X19193Y15966D1*
X19223Y16088D1*
X19272Y16202D1*
X19340Y16307D1*
X19424Y16399D1*
X19522Y16477D1*
X19631Y16537D1*
X19749Y16578D1*
X19872Y16600D1*
X19997D1*
X20120Y16581D1*
X20239Y16541D1*
X20349Y16483D1*
X20448Y16407D1*
X20534Y16316D1*
X20603Y16212D1*
X20654Y16098D1*
X20686Y15977D1*
X20697Y15846D1*
X20687Y15721D1*
X12110Y5764D2*
Y12440D1*
X12133Y12562D1*
X12207Y12673D1*
X13977Y14444D1*
Y14479D1*
X14004Y14601D1*
X14062Y14711D1*
X14148Y14802D1*
X14254Y14866D1*
X14374Y14900D1*
X14499Y14901D1*
X14619Y14869D1*
X14727Y14806D1*
X14814Y14717D1*
X14874Y14608D1*
X14903Y14487D1*
X14905Y14440D1*
X14888Y14317D1*
X14839Y14202D1*
X14762Y14104D1*
X14661Y14031D1*
X14545Y13987D1*
X14448Y13978D1*
X12817Y12350D1*
X12770Y12304D1*
Y5764D1*
X12814Y5717D1*
X12874Y5608D1*
X12903Y5487D1*
X12905Y5440D1*
X12888Y5317D1*
X12839Y5202D1*
X12762Y5104D1*
X12661Y5031D1*
X12545Y4987D1*
X12420Y4975D1*
X12298Y4997D1*
X12185Y5051D1*
X12091Y5133D1*
X12022Y5236D1*
X11983Y5355D1*
X11977Y5479D1*
X12004Y5601D1*
X12062Y5711D1*
X12107Y5759D1*
X9065Y8565D2*
Y4991D1*
X9490Y4566D1*
X18815Y4565D1*
X20815D1*
Y20815D1*
X9491D1*
X9066Y20390D1*
X9065Y11065D1*
Y8565D1*
X10440Y16005D2*
D14*
Y15440D1*
X9875D2*
X11005D1*
X19940Y12665D2*
Y11152D1*
X19183Y11909D2*
X20697D1*
X19940Y14634D2*
Y13120D1*
X19183Y13877D2*
X20697D1*
D19*
X10440Y11940D3*
Y10940D3*
Y9940D3*
Y13440D3*
Y14440D3*
Y15440D3*
D21*
X19940Y9940D3*
D22*
Y11909D3*
Y13877D3*
Y15846D3*
D23*
X6440Y10940D3*
X6439Y14940D3*
D24*
X8440Y12940D3*
X8439Y11940D3*
X4961Y10171D2*
D54*
X4999Y10133D1*
X5018Y10076D1*
Y9999D1*
X4999Y9942D1*
X4961Y9903D1*
X4923D1*
X4884Y9923D1*
X4865Y9942D1*
X4846Y9980D1*
X4808Y10095D1*
X4789Y10133D1*
X4769Y10152D1*
X4731Y10171D1*
X4674D1*
X4636Y10133D1*
X4616Y10076D1*
Y9999D1*
X4636Y9942D1*
X4674Y9903D1*
X4884Y10295D2*
X4693D1*
X4636Y10314D1*
X4616Y10352D1*
Y10410D1*
X4636Y10448D1*
X4693Y10505D1*
X4884D2*
X4616D1*
X4884Y10629D2*
X4482D1*
X4827D2*
X4865Y10667D1*
X4884Y10705D1*
Y10763D1*
X4865Y10801D1*
X4827Y10839D1*
X4769Y10858D1*
X4731D1*
X4674Y10839D1*
X4635Y10801D1*
X4616Y10763D1*
Y10705D1*
X4635Y10667D1*
X4674Y10629D1*
X4769Y10982D2*
Y11211D1*
X4808D1*
X4846Y11192D1*
X4865Y11173D1*
X4884Y11135D1*
Y11078D1*
X4865Y11039D1*
X4827Y11001D1*
X4769Y10982D1*
X4731D1*
X4674Y11001D1*
X4636Y11039D1*
X4616Y11078D1*
Y11135D1*
X4636Y11173D1*
X4674Y11211D1*
X4884Y11335D2*
X4616D1*
X4769D2*
X4827Y11354D1*
X4865Y11392D1*
X4884Y11431D1*
Y11488D1*
X4961Y11880D2*
X4999Y11842D1*
X5018Y11784D1*
Y11708D1*
X4999Y11650D1*
X4961Y11612D1*
X4923D1*
X4884Y11631D1*
X4865Y11650D1*
X4846Y11688D1*
X4808Y11803D1*
X4789Y11842D1*
X4769Y11861D1*
X4731Y11880D1*
X4674D1*
X4636Y11842D1*
X4616Y11784D1*
Y11708D1*
X4636Y11650D1*
X4674Y11612D1*
X5018Y12003D2*
X4616D1*
X5018Y12127D2*
X4616D1*
Y12261D1*
X4636Y12318D1*
X4674Y12357D1*
X4712Y12376D1*
X4769Y12395D1*
X4865D1*
X4923Y12376D1*
X4961Y12357D1*
X4999Y12318D1*
X5018Y12261D1*
Y12127D1*
X4808Y12907D2*
Y13080D1*
X4827Y13137D1*
X4846Y13156D1*
X4884Y13175D1*
X4942D1*
X4980Y13156D1*
X4999Y13137D1*
X5018Y13080D1*
Y12907D1*
X4616D1*
X4884Y13299D2*
X4616D1*
X4769D2*
X4827Y13318D1*
X4865Y13356D1*
X4884Y13395D1*
Y13452D1*
X4769Y13576D2*
Y13805D1*
X4808D1*
X4846Y13786D1*
X4865Y13767D1*
X4884Y13729D1*
Y13671D1*
X4865Y13633D1*
X4827Y13595D1*
X4769Y13576D1*
X4731D1*
X4674Y13595D1*
X4636Y13633D1*
X4616Y13671D1*
Y13729D1*
X4636Y13767D1*
X4674Y13805D1*
X4616Y14235D2*
X5018Y14082D1*
X4616Y13929D1*
X4750Y13986D2*
Y14178D1*
X4884Y14358D2*
X4616D1*
X4808D2*
X4865Y14416D1*
X4884Y14454D1*
Y14511D1*
X4865Y14550D1*
X4808Y14569D1*
X4616D1*
X4808D2*
X4865Y14626D1*
X4884Y14665D1*
Y14722D1*
X4865Y14760D1*
X4808Y14780D1*
X4616D1*
X4884Y14903D2*
X4482D1*
X4827D2*
X4865Y14942D1*
X4884Y14980D1*
Y15037D1*
X4865Y15076D1*
X4827Y15114D1*
X4769Y15133D1*
X4731D1*
X4674Y15114D1*
X4635Y15076D1*
X4616Y15037D1*
Y14980D1*
X4635Y14942D1*
X4674Y14903D1*
X7813Y10523D2*
X8215Y10370D1*
X7813Y10217D1*
X8062Y10093D2*
Y9864D1*
X8024D1*
X7985Y9883D1*
X7966Y9902D1*
X7947Y9940D1*
Y9998D1*
X7966Y10036D1*
X8005Y10074D1*
X8062Y10093D1*
X8100D1*
X8158Y10074D1*
X8196Y10036D1*
X8215Y9998D1*
Y9940D1*
X8196Y9902D1*
X8158Y9864D1*
X7947Y9740D2*
X8215D1*
X8062D2*
X8005Y9721D1*
X7966Y9683D1*
X7947Y9644D1*
Y9587D1*
X7814Y9036D2*
Y8826D1*
X7967Y8940D1*
Y8883D1*
X7986Y8845D1*
X8005Y8826D1*
X8062Y8806D1*
X8100D1*
X8158Y8826D1*
X8196Y8864D1*
X8215Y8921D1*
Y8979D1*
X8196Y9036D1*
X8177Y9055D1*
X8139Y9074D1*
X8005Y7905D2*
Y7733D1*
X7985Y7676D1*
X7966Y7656D1*
X7928Y7637D1*
X7890D1*
X7852Y7656D1*
X7832Y7676D1*
X7813Y7733D1*
Y7905D1*
X8215D1*
X8005Y7771D2*
X8215Y7637D1*
X8062Y7514D2*
Y7284D1*
X8024D1*
X7985Y7303D1*
X7966Y7322D1*
X7947Y7361D1*
Y7418D1*
X7966Y7456D1*
X8005Y7495D1*
X8062Y7514D1*
X8100D1*
X8158Y7495D1*
X8196Y7456D1*
X8215Y7418D1*
Y7361D1*
X8196Y7322D1*
X8158Y7284D1*
X7947Y7161D2*
X8215Y7046D1*
X7947Y6931D1*
X7814Y6381D2*
Y6171D1*
X7967Y6285D1*
Y6228D1*
X7986Y6190D1*
X8005Y6171D1*
X8062Y6151D1*
X8100D1*
X8158Y6171D1*
X8196Y6209D1*
X8215Y6266D1*
Y6324D1*
X8196Y6381D1*
X8177Y6400D1*
X8139Y6419D1*
M02*
