M48
INCH
T01C0.019
T02C0.035
T03C0.0394
T04C0.0512
T05C0.0807
T06C0.125
%
T01
X+015940Y+019440
X+011940Y+017940
X+014440Y+014440
X+016940Y+014440
X+018440Y+009940
X+012940Y+007440
X+012440Y+005440
X+011940Y+012940
T02
X+010440Y+011940
X+010440Y+010940
X+010440Y+009940
X+010440Y+013440
X+010440Y+014440
X+010440Y+015440
T03
X+008440Y+012940
X+008439Y+011940
T04
X+019940Y+009940
X+019940Y+011909
X+019940Y+013877
X+019940Y+015846
T05
X+006440Y+010940
X+006439Y+014940
T06
X+019440Y+005940
T00
M30
