G04 DipTrace 2.4.0.2*
%INTopMask.gbr*%
%MOIN*%
%ADD27C,0.125*%
%ADD35C,0.0789*%
%ADD37C,0.1281*%
%ADD39C,0.1064*%
%ADD41R,0.1064X0.1064*%
%ADD43R,0.1458X0.071*%
%ADD45C,0.068*%
%ADD47R,0.0671X0.0592*%
%ADD49R,0.0316X0.0946*%
%ADD51R,0.0592X0.0671*%
%FSLAX44Y44*%
G04*
G70*
G90*
G75*
G01*
%LNTopMask*%
%LPD*%
D51*
X17071Y9940D3*
X16323D3*
D27*
X19440Y5940D3*
D49*
X14940Y7440D3*
X14440D3*
X13940D3*
X13440D3*
Y5393D3*
X13940D3*
X14440D3*
X14940D3*
X13940Y17940D3*
X13440D3*
X12940D3*
X12440D3*
Y15893D3*
X12940D3*
X13440D3*
X13940D3*
D51*
X15940Y15940D3*
X15192D3*
X15940Y14440D3*
X15192D3*
D47*
X14940Y11940D3*
Y11192D3*
X13440Y11940D3*
Y11192D3*
X11940Y11940D3*
Y11192D3*
D51*
X14940Y8940D3*
X14192D3*
D45*
X10440Y11940D3*
Y10940D3*
Y9940D3*
Y13440D3*
Y14440D3*
Y15440D3*
D43*
X16940Y19440D3*
X19105D3*
D47*
X12125Y9125D3*
Y9873D3*
D51*
X14940Y9940D3*
X14192D3*
D41*
X19940D3*
D39*
Y11909D3*
Y13877D3*
Y15846D3*
D37*
X6440Y10940D3*
X6439Y14940D3*
D35*
X8440Y12940D3*
X8439Y11940D3*
M02*
